# Blender 4.1.1
# www.blender.org
o Cylinder
v 0.000000 -0.850000 -1.000000
v 0.000000 0.150000 -1.000000
v 0.195090 -0.850000 -0.980785
v 0.195090 0.150000 -0.980785
v 0.382683 -0.850000 -0.923880
v 0.382683 0.150000 -0.923880
v 0.555570 -0.850000 -0.831470
v 0.555570 0.150000 -0.831470
v 0.707107 -0.850000 -0.707107
v 0.707107 0.150000 -0.707107
v 0.831470 -0.850000 -0.555570
v 0.831470 0.150000 -0.555570
v 0.923880 -0.850000 -0.382683
v 0.923880 0.150000 -0.382683
v 0.980785 -0.850000 -0.195090
v 0.980785 0.150000 -0.195090
v 1.000000 -0.850000 0.000000
v 1.000000 0.150000 -0.000000
v 0.980785 -0.850000 0.195090
v 0.980785 0.150000 0.195090
v 0.923880 -0.850000 0.382683
v 0.923880 0.150000 0.382683
v 0.831470 -0.850000 0.555570
v 0.831470 0.150000 0.555570
v 0.707107 -0.850000 0.707107
v 0.707107 0.150000 0.707107
v 0.555570 -0.850000 0.831470
v 0.555570 0.150000 0.831470
v 0.382683 -0.850000 0.923880
v 0.382683 0.150000 0.923880
v 0.195090 -0.850000 0.980785
v 0.195090 0.150000 0.980785
v 0.000000 -0.850000 1.000000
v 0.000000 0.150000 1.000000
v -0.195090 -0.850000 0.980785
v -0.195090 0.150000 0.980785
v -0.382683 -0.850000 0.923880
v -0.382683 0.150000 0.923880
v -0.555570 -0.850000 0.831470
v -0.555570 0.150000 0.831470
v -0.707107 -0.850000 0.707107
v -0.707107 0.150000 0.707107
v -0.831470 -0.850000 0.555570
v -0.831470 0.150000 0.555570
v -0.923880 -0.850000 0.382683
v -0.923880 0.150000 0.382683
v -0.980785 -0.850000 0.195090
v -0.980785 0.150000 0.195090
v -1.000000 -0.850000 0.000000
v -1.000000 0.150000 -0.000000
v -0.980785 -0.850000 -0.195090
v -0.980785 0.150000 -0.195090
v -0.923880 -0.850000 -0.382683
v -0.923880 0.150000 -0.382683
v -0.831470 -0.850000 -0.555570
v -0.831470 0.150000 -0.555570
v -0.707107 -0.850000 -0.707107
v -0.707107 0.150000 -0.707107
v -0.555570 -0.850000 -0.831470
v -0.555570 0.150000 -0.831470
v -0.382683 -0.850000 -0.923880
v -0.382683 0.150000 -0.923880
v -0.195090 -0.850000 -0.980785
v -0.195090 0.150000 -0.980785
v 0.000000 -0.884285 -1.036394
v -0.000000 0.184285 -1.036394
v 0.202190 -0.884285 -1.016480
v 0.202190 0.184285 -1.016480
v 0.396610 -0.884285 -0.957504
v 0.396611 0.184284 -0.957505
v 0.575790 -0.884284 -0.861731
v 0.575790 0.184285 -0.861730
v 0.732842 -0.884285 -0.732841
v 0.732842 0.184285 -0.732842
v 0.861731 -0.884285 -0.575790
v 0.861730 0.184285 -0.575790
v 0.957504 -0.884285 -0.396610
v 0.957505 0.184284 -0.396611
v 1.016481 -0.884284 -0.202190
v 1.016480 0.184285 -0.202190
v 1.036394 -0.884285 0.000000
v 1.036394 0.184285 -0.000000
v 1.016480 -0.884285 0.202190
v 1.016480 0.184285 0.202190
v 0.957504 -0.884285 0.396610
v 0.957505 0.184284 0.396611
v 0.861731 -0.884284 0.575790
v 0.861730 0.184285 0.575789
v 0.732842 -0.884285 0.732842
v 0.732842 0.184285 0.732842
v 0.575790 -0.884285 0.861731
v 0.575790 0.184285 0.861730
v 0.396610 -0.884285 0.957504
v 0.396611 0.184284 0.957505
v 0.202190 -0.884284 1.016480
v 0.202190 0.184285 1.016480
v 0.000000 -0.884285 1.036394
v 0.000000 0.184285 1.036394
v -0.202190 -0.884285 1.016480
v -0.202190 0.184285 1.016480
v -0.396610 -0.884285 0.957504
v -0.396611 0.184285 0.957505
v -0.575790 -0.884284 0.861731
v -0.575790 0.184285 0.861730
v -0.732842 -0.884285 0.732842
v -0.732842 0.184285 0.732842
v -0.861731 -0.884285 0.575790
v -0.861730 0.184285 0.575790
v -0.957504 -0.884285 0.396610
v -0.957505 0.184284 0.396611
v -1.016481 -0.884284 0.202190
v -1.016480 0.184285 0.202190
v -1.036394 -0.884285 0.000000
v -1.036394 0.184285 -0.000000
v -1.016480 -0.884285 -0.202190
v -1.016480 0.184285 -0.202190
v -0.957504 -0.884285 -0.396610
v -0.957505 0.184284 -0.396611
v -0.861731 -0.884284 -0.575790
v -0.861730 0.184285 -0.575789
v -0.732842 -0.884285 -0.732842
v -0.732842 0.184285 -0.732842
v -0.575790 -0.884285 -0.861731
v -0.575790 0.184285 -0.861730
v -0.396610 -0.884285 -0.957504
v -0.396611 0.184284 -0.957505
v -0.202190 -0.884285 -1.016480
v -0.202190 0.184285 -1.016480
vn -0.0000 -0.0000 -1.0000
vn 0.1951 -0.0000 -0.9808
vn 0.3827 -0.0000 -0.9239
vn 0.5556 -0.0000 -0.8315
vn 0.7071 -0.0000 -0.7071
vn 0.8315 -0.0000 -0.5556
vn 0.9239 -0.0000 -0.3827
vn 0.9808 -0.0000 -0.1951
vn 1.0000 -0.0000 -0.0000
vn 0.9808 -0.0000 0.1951
vn 0.9239 -0.0000 0.3827
vn 0.8315 -0.0000 0.5556
vn 0.7071 -0.0000 0.7071
vn 0.5556 -0.0000 0.8315
vn 0.3827 -0.0000 0.9239
vn 0.1951 -0.0000 0.9808
vn -0.0000 -0.0000 1.0000
vn -0.1951 -0.0000 0.9808
vn -0.3827 -0.0000 0.9239
vn -0.5556 -0.0000 0.8315
vn -0.7071 -0.0000 0.7071
vn -0.8315 -0.0000 0.5556
vn -0.9239 -0.0000 0.3827
vn -0.9808 -0.0000 0.1951
vn -1.0000 -0.0000 -0.0000
vn -0.9808 -0.0000 -0.1951
vn -0.9239 -0.0000 -0.3827
vn -0.8315 -0.0000 -0.5556
vn -0.7071 -0.0000 -0.7071
vn -0.5556 -0.0000 -0.8315
vn -0.3827 -0.0000 -0.9239
vn -0.0000 1.0000 -0.0000
vn -0.1951 -0.0000 -0.9808
vn -0.0000 -1.0000 -0.0000
vt 0.930976 0.995058
vt 0.904040 0.999726
vt 0.930976 0.999726
vt 0.904040 0.995058
vt 0.877104 0.999726
vt 0.877104 0.995058
vt 0.850168 0.999726
vt 0.850168 0.995058
vt 0.823232 0.999726
vt 0.823232 0.995058
vt 0.796296 0.999726
vt 0.796296 0.995058
vt 0.769360 0.999726
vt 0.769360 0.995058
vt 0.742424 0.999726
vt 0.742424 0.995058
vt 0.715488 0.999726
vt 0.715488 0.995058
vt 0.688552 0.999726
vt 0.688552 0.995058
vt 0.661616 0.999726
vt 0.661616 0.995058
vt 0.634680 0.999726
vt 0.634680 0.995058
vt 0.607744 0.999726
vt 0.607744 0.995058
vt 0.580808 0.999726
vt 0.580808 0.995058
vt 0.553872 0.999726
vt 0.553872 0.995058
vt 0.526936 0.999726
vt 0.526936 0.995058
vt 0.500000 0.999726
vt 0.500000 0.995058
vt 0.473064 0.999726
vt 0.473064 0.995058
vt 0.446128 0.999726
vt 0.446128 0.995058
vt 0.419192 0.999726
vt 0.419192 0.995058
vt 0.392256 0.999726
vt 0.392256 0.995058
vt 0.365320 0.999726
vt 0.365320 0.995058
vt 0.338384 0.999726
vt 0.338384 0.995058
vt 0.311448 0.999726
vt 0.311448 0.995058
vt 0.284512 0.999726
vt 0.284512 0.995058
vt 0.257576 0.999726
vt 0.257576 0.995058
vt 0.230640 0.999726
vt 0.230640 0.995058
vt 0.203704 0.999726
vt 0.203704 0.995058
vt 0.176768 0.999726
vt 0.176768 0.995058
vt 0.149832 0.999726
vt 0.149832 0.995058
vt 0.122896 0.999726
vt 0.308996 0.041116
vt 0.958221 0.310033
vt 0.689303 0.959258
vt 0.122896 0.995058
vt 0.095960 0.999726
vt 0.095960 0.995058
vt 0.069024 0.999726
vt 0.596201 0.012839
vt 0.011914 0.403248
vt 0.402322 0.987534
vt 0.596089 0.987534
vt 0.499150 0.997082
vt 0.402210 0.987534
vt 0.308996 0.959258
vt 0.223090 0.913340
vt 0.147792 0.851545
vt 0.085997 0.776247
vt 0.040079 0.690340
vt 0.011802 0.597126
vt 0.002255 0.500187
vt 0.011802 0.403248
vt 0.040079 0.310033
vt 0.085997 0.224127
vt 0.147792 0.148829
vt 0.223090 0.087034
vt 0.402210 0.012839
vt 0.499150 0.003292
vt 0.596089 0.012839
vt 0.689303 0.041116
vt 0.775210 0.087034
vt 0.850508 0.148829
vt 0.912303 0.224127
vt 0.986497 0.403248
vt 0.996045 0.500187
vt 0.986497 0.597126
vt 0.958221 0.690340
vt 0.912303 0.776247
vt 0.850508 0.851545
vt 0.775210 0.913340
vt 0.069024 0.995058
vt 0.499261 0.997082
vt 0.596201 0.987534
vt 0.689415 0.959258
vt 0.775322 0.913340
vt 0.850619 0.851545
vt 0.912415 0.776247
vt 0.958333 0.690340
vt 0.986609 0.597126
vt 0.996157 0.500187
vt 0.986609 0.403248
vt 0.958333 0.310033
vt 0.912415 0.224127
vt 0.850619 0.148829
vt 0.775322 0.087034
vt 0.689415 0.041116
vt 0.499261 0.003292
vt 0.402322 0.012839
vt 0.309108 0.041116
vt 0.223201 0.087034
vt 0.147904 0.148829
vt 0.086108 0.224127
vt 0.040190 0.310033
vt 0.002366 0.500187
vt 0.011914 0.597126
vt 0.040190 0.690340
vt 0.086108 0.776247
vt 0.147904 0.851545
vt 0.223201 0.913340
vt 0.309108 0.959258
vt 1.220392 1.221901
s 1
f 2/1/1 3/2/2 1/3/1
f 4/4/2 5/5/3 3/2/2
f 6/6/3 7/7/4 5/5/3
f 8/8/4 9/9/5 7/7/4
f 10/10/5 11/11/6 9/9/5
f 12/12/6 13/13/7 11/11/6
f 14/14/7 15/15/8 13/13/7
f 16/16/8 17/17/9 15/15/8
f 18/18/9 19/19/10 17/17/9
f 20/20/10 21/21/11 19/19/10
f 22/22/11 23/23/12 21/21/11
f 24/24/12 25/25/13 23/23/12
f 26/26/13 27/27/14 25/25/13
f 28/28/14 29/29/15 27/27/14
f 30/30/15 31/31/16 29/29/15
f 32/32/16 33/33/17 31/31/16
f 34/34/17 35/35/18 33/33/17
f 36/36/18 37/37/19 35/35/18
f 38/38/19 39/39/20 37/37/19
f 40/40/20 41/41/21 39/39/20
f 42/42/21 43/43/22 41/41/21
f 44/44/22 45/45/23 43/43/22
f 46/46/23 47/47/24 45/45/23
f 48/48/24 49/49/25 47/47/24
f 50/50/25 51/51/26 49/49/25
f 52/52/26 53/53/27 51/51/26
f 54/54/27 55/55/28 53/53/27
f 56/56/28 57/57/29 55/55/28
f 58/58/29 59/59/30 57/57/29
f 60/60/30 61/61/31 59/59/30
s 0
f 38/62/32 22/63/32 6/64/32
s 1
f 62/65/31 63/66/33 61/61/31
f 64/67/33 1/68/1 63/66/33
s 0
f 31/69/34 47/70/34 63/71/34
s 1
f 2/1/1 4/4/2 3/2/2
f 4/4/2 6/6/3 5/5/3
f 6/6/3 8/8/4 7/7/4
f 8/8/4 10/10/5 9/9/5
f 10/10/5 12/12/6 11/11/6
f 12/12/6 14/14/7 13/13/7
f 14/14/7 16/16/8 15/15/8
f 16/16/8 18/18/9 17/17/9
f 18/18/9 20/20/10 19/19/10
f 20/20/10 22/22/11 21/21/11
f 22/22/11 24/24/12 23/23/12
f 24/24/12 26/26/13 25/25/13
f 26/26/13 28/28/14 27/27/14
f 28/28/14 30/30/15 29/29/15
f 30/30/15 32/32/16 31/31/16
f 32/32/16 34/34/17 33/33/17
f 34/34/17 36/36/18 35/35/18
f 36/36/18 38/38/19 37/37/19
f 38/38/19 40/40/20 39/39/20
f 40/40/20 42/42/21 41/41/21
f 42/42/21 44/44/22 43/43/22
f 44/44/22 46/46/23 45/45/23
f 46/46/23 48/48/24 47/47/24
f 48/48/24 50/50/25 49/49/25
f 50/50/25 52/52/26 51/51/26
f 52/52/26 54/54/27 53/53/27
f 54/54/27 56/56/28 55/55/28
f 56/56/28 58/58/29 57/57/29
f 58/58/29 60/60/30 59/59/30
f 60/60/30 62/65/31 61/61/31
s 0
f 6/64/32 4/72/32 2/73/32
f 2/73/32 64/74/32 62/75/32
f 62/75/32 60/76/32 58/77/32
f 58/77/32 56/78/32 54/79/32
f 54/79/32 52/80/32 50/81/32
f 50/81/32 48/82/32 46/83/32
f 46/83/32 44/84/32 42/85/32
f 42/85/32 40/86/32 38/62/32
f 38/62/32 36/87/32 34/88/32
f 34/88/32 32/89/32 30/90/32
f 30/90/32 28/91/32 26/92/32
f 26/92/32 24/93/32 22/63/32
f 22/63/32 20/94/32 18/95/32
f 18/95/32 16/96/32 14/97/32
f 14/97/32 12/98/32 10/99/32
f 10/99/32 8/100/32 6/64/32
f 6/64/32 2/73/32 62/75/32
f 62/75/32 58/77/32 54/79/32
f 54/79/32 50/81/32 46/83/32
f 46/83/32 42/85/32 38/62/32
f 38/62/32 34/88/32 30/90/32
f 30/90/32 26/92/32 22/63/32
f 22/63/32 18/95/32 14/97/32
f 14/97/32 10/99/32 6/64/32
f 6/64/32 62/75/32 54/79/32
f 54/79/32 46/83/32 38/62/32
f 38/62/32 30/90/32 22/63/32
f 22/63/32 14/97/32 6/64/32
f 6/64/32 54/79/32 38/62/32
s 1
f 62/65/31 64/67/33 63/66/33
f 64/67/33 2/101/1 1/68/1
s 0
f 63/71/34 1/102/34 3/103/34
f 3/103/34 5/104/34 7/105/34
f 7/105/34 9/106/34 11/107/34
f 11/107/34 13/108/34 15/109/34
f 15/109/34 17/110/34 19/111/34
f 19/111/34 21/112/34 23/113/34
f 23/113/34 25/114/34 27/115/34
f 27/115/34 29/116/34 31/69/34
f 31/69/34 33/117/34 35/118/34
f 35/118/34 37/119/34 39/120/34
f 39/120/34 41/121/34 43/122/34
f 43/122/34 45/123/34 47/70/34
f 47/70/34 49/124/34 51/125/34
f 51/125/34 53/126/34 55/127/34
f 55/127/34 57/128/34 59/129/34
f 59/129/34 61/130/34 63/71/34
f 63/71/34 3/103/34 7/105/34
f 7/105/34 11/107/34 15/109/34
f 15/109/34 19/111/34 23/113/34
f 23/113/34 27/115/34 31/69/34
f 31/69/34 35/118/34 39/120/34
f 39/120/34 43/122/34 47/70/34
f 47/70/34 51/125/34 55/127/34
f 55/127/34 59/129/34 63/71/34
f 63/71/34 7/105/34 15/109/34
f 15/109/34 23/113/34 31/69/34
f 31/69/34 39/120/34 47/70/34
f 47/70/34 55/127/34 63/71/34
f 63/71/34 15/109/34 31/69/34
s 1
f 66/131/17 65/131/17 67/131/18
f 68/131/18 67/131/18 69/131/19
f 70/131/19 69/131/19 71/131/20
f 72/131/20 71/131/20 73/131/21
f 74/131/21 73/131/21 75/131/22
f 76/131/22 75/131/22 77/131/23
f 78/131/23 77/131/23 79/131/24
f 80/131/24 79/131/24 81/131/25
f 82/131/25 81/131/25 83/131/26
f 84/131/26 83/131/26 85/131/27
f 86/131/27 85/131/27 87/131/28
f 88/131/28 87/131/28 89/131/29
f 90/131/29 89/131/29 91/131/30
f 92/131/30 91/131/30 93/131/31
f 94/131/31 93/131/31 95/131/33
f 96/131/33 95/131/33 97/131/1
f 98/131/1 97/131/1 99/131/2
f 100/131/2 99/131/2 101/131/3
f 102/131/3 101/131/3 103/131/4
f 104/131/4 103/131/4 105/131/5
f 106/131/5 105/131/5 107/131/6
f 108/131/6 107/131/6 109/131/7
f 110/131/7 109/131/7 111/131/8
f 112/131/8 111/131/8 113/131/9
f 114/131/9 113/131/9 115/131/10
f 116/131/10 115/131/10 117/131/11
f 118/131/11 117/131/11 119/131/12
f 120/131/12 119/131/12 121/131/13
f 122/131/13 121/131/13 123/131/14
f 124/131/14 123/131/14 125/131/15
s 0
f 102/131/34 70/131/34 86/131/34
s 1
f 126/131/15 125/131/15 127/131/16
f 128/131/16 127/131/16 65/131/17
s 0
f 95/131/32 127/131/32 111/131/32
s 1
f 66/131/17 67/131/18 68/131/18
f 68/131/18 69/131/19 70/131/19
f 70/131/19 71/131/20 72/131/20
f 72/131/20 73/131/21 74/131/21
f 74/131/21 75/131/22 76/131/22
f 76/131/22 77/131/23 78/131/23
f 78/131/23 79/131/24 80/131/24
f 80/131/24 81/131/25 82/131/25
f 82/131/25 83/131/26 84/131/26
f 84/131/26 85/131/27 86/131/27
f 86/131/27 87/131/28 88/131/28
f 88/131/28 89/131/29 90/131/29
f 90/131/29 91/131/30 92/131/30
f 92/131/30 93/131/31 94/131/31
f 94/131/31 95/131/33 96/131/33
f 96/131/33 97/131/1 98/131/1
f 98/131/1 99/131/2 100/131/2
f 100/131/2 101/131/3 102/131/3
f 102/131/3 103/131/4 104/131/4
f 104/131/4 105/131/5 106/131/5
f 106/131/5 107/131/6 108/131/6
f 108/131/6 109/131/7 110/131/7
f 110/131/7 111/131/8 112/131/8
f 112/131/8 113/131/9 114/131/9
f 114/131/9 115/131/10 116/131/10
f 116/131/10 117/131/11 118/131/11
f 118/131/11 119/131/12 120/131/12
f 120/131/12 121/131/13 122/131/13
f 122/131/13 123/131/14 124/131/14
f 124/131/14 125/131/15 126/131/15
s 0
f 70/131/34 66/131/34 68/131/34
f 66/131/34 126/131/34 128/131/34
f 126/131/34 122/131/34 124/131/34
f 122/131/34 118/131/34 120/131/34
f 118/131/34 114/131/34 116/131/34
f 114/131/34 110/131/34 112/131/34
f 110/131/34 106/131/34 108/131/34
f 106/131/34 102/131/34 104/131/34
f 102/131/34 98/131/34 100/131/34
f 98/131/34 94/131/34 96/131/34
f 94/131/34 90/131/34 92/131/34
f 90/131/34 86/131/34 88/131/34
f 86/131/34 82/131/34 84/131/34
f 82/131/34 78/131/34 80/131/34
f 78/131/34 74/131/34 76/131/34
f 74/131/34 70/131/34 72/131/34
f 70/131/34 126/131/34 66/131/34
f 126/131/34 118/131/34 122/131/34
f 118/131/34 110/131/34 114/131/34
f 110/131/34 102/131/34 106/131/34
f 102/131/34 94/131/34 98/131/34
f 94/131/34 86/131/34 90/131/34
f 86/131/34 78/131/34 82/131/34
f 78/131/34 70/131/34 74/131/34
f 70/131/34 118/131/34 126/131/34
f 118/131/34 102/131/34 110/131/34
f 102/131/34 86/131/34 94/131/34
f 86/131/34 70/131/34 78/131/34
f 70/131/34 102/131/34 118/131/34
s 1
f 126/131/15 127/131/16 128/131/16
f 128/131/16 65/131/17 66/131/17
s 0
f 127/131/32 67/131/32 65/131/32
f 67/131/32 71/131/32 69/131/32
f 71/131/32 75/131/32 73/131/32
f 75/131/32 79/131/32 77/131/32
f 79/131/32 83/131/32 81/131/32
f 83/131/32 87/131/32 85/131/32
f 87/131/32 91/131/32 89/131/32
f 91/131/32 95/131/32 93/131/32
f 95/131/32 99/131/32 97/131/32
f 99/131/32 103/131/32 101/131/32
f 103/131/32 107/131/32 105/131/32
f 107/131/32 111/131/32 109/131/32
f 111/131/32 115/131/32 113/131/32
f 115/131/32 119/131/32 117/131/32
f 119/131/32 123/131/32 121/131/32
f 123/131/32 127/131/32 125/131/32
f 127/131/32 71/131/32 67/131/32
f 71/131/32 79/131/32 75/131/32
f 79/131/32 87/131/32 83/131/32
f 87/131/32 95/131/32 91/131/32
f 95/131/32 103/131/32 99/131/32
f 103/131/32 111/131/32 107/131/32
f 111/131/32 119/131/32 115/131/32
f 119/131/32 127/131/32 123/131/32
f 127/131/32 79/131/32 71/131/32
f 79/131/32 95/131/32 87/131/32
f 95/131/32 111/131/32 103/131/32
f 111/131/32 127/131/32 119/131/32
f 127/131/32 95/131/32 79/131/32
