# Blender 4.1.1
# www.blender.org
o Cube
v -1.000000 -0.850000 1.000000
v -1.000000 0.150000 1.000000
v -1.000000 -0.850000 -1.000000
v -1.000000 0.150000 -1.000000
v 1.000000 -0.850000 1.000000
v 1.000000 0.150000 1.000000
v 1.000000 -0.850000 -1.000000
v 1.000000 0.150000 -1.000000
vn -1.0000 -0.0000 -0.0000
vn -0.0000 -0.0000 -1.0000
vn 1.0000 -0.0000 -0.0000
vn -0.0000 -0.0000 1.0000
vn -0.0000 -1.0000 -0.0000
vn -0.0000 1.0000 -0.0000
vt 1.000000 0.998933
vt 0.750000 0.988619
vt 1.000000 0.988619
vt 0.750000 0.998933
vt 0.500000 0.988619
vt 0.500000 0.998933
vt 0.250000 0.988619
vt 0.250000 0.998933
vt 0.000000 0.988619
vt 0.991665 0.007280
vt 0.009103 0.989842
vt 0.009103 0.007280
vt 0.991381 0.007280
vt 0.008819 0.989842
vt 0.008819 0.007280
vt 0.000000 0.998933
vt 0.991665 0.989842
vt 0.991381 0.989842
s 0
f 2/1/1 3/2/1 1/3/1
f 4/4/2 7/5/2 3/2/2
f 8/6/3 5/7/3 7/5/3
f 6/8/4 1/9/4 5/7/4
f 7/10/5 1/11/5 3/12/5
f 4/13/6 6/14/6 8/15/6
f 2/1/1 4/4/1 3/2/1
f 4/4/2 8/6/2 7/5/2
f 8/6/3 6/8/3 5/7/3
f 6/8/4 2/16/4 1/9/4
f 7/10/5 5/17/5 1/11/5
f 4/13/6 2/18/6 6/14/6
