# Blender 4.1.1
# www.blender.org
o Head_Mount
v 0.052847 -0.015057 0.043424
v 0.052847 0.018108 0.043424
v 0.052847 -0.015057 -0.043424
v 0.052847 0.018108 -0.043424
v 0.086012 -0.015057 0.043424
v 0.086012 0.018108 0.043424
v 0.086012 -0.015057 -0.043424
v 0.086012 0.018108 -0.043424
v 0.079522 -0.120157 -0.030989
v 0.069429 -0.120157 -0.036816
v 0.079522 -0.120157 -0.019335
v 0.069429 -0.120157 -0.013508
v 0.059337 -0.120157 -0.019335
v 0.059337 -0.120157 -0.030989
v 0.069429 0.003867 -0.036816
v 0.059337 0.003867 -0.030989
v 0.059337 0.003867 -0.019335
v 0.069429 0.003867 -0.013508
v 0.079522 0.003867 -0.019335
v 0.079522 0.003867 -0.030989
v 0.079522 -0.120157 0.030989
v 0.069429 -0.120157 0.036816
v 0.079522 -0.120157 0.019335
v 0.069429 -0.120157 0.013508
v 0.059337 -0.120157 0.019335
v 0.059337 -0.120157 0.030989
v 0.069429 0.003867 0.036816
v 0.059337 0.003867 0.030989
v 0.059337 0.003867 0.019335
v 0.069429 0.003867 0.013508
v 0.079522 0.003867 0.019335
v 0.079522 0.003867 0.030989
v -0.052849 -0.015057 0.043424
v -0.052849 0.018108 0.043424
v -0.052849 -0.015057 -0.043424
v -0.052849 0.018108 -0.043424
v -0.086014 -0.015057 0.043424
v -0.086014 0.018108 0.043424
v -0.086014 -0.015057 -0.043424
v -0.086014 0.018108 -0.043424
v -0.079524 -0.120157 -0.030989
v -0.069431 -0.120157 -0.036816
v -0.079524 -0.120157 -0.019335
v -0.069431 -0.120157 -0.013508
v -0.059339 -0.120157 -0.019335
v -0.059339 -0.120157 -0.030989
v -0.069431 0.003867 -0.036816
v -0.059339 0.003867 -0.030989
v -0.059339 0.003867 -0.019335
v -0.069431 0.003867 -0.013508
v -0.079524 0.003867 -0.019335
v -0.079524 0.003867 -0.030989
v -0.079524 -0.120157 0.030989
v -0.069431 -0.120157 0.036816
v -0.079524 -0.120157 0.019335
v -0.069431 -0.120157 0.013508
v -0.059339 -0.120157 0.019335
v -0.059339 -0.120157 0.030989
v -0.069431 0.003867 0.036816
v -0.059339 0.003867 0.030989
v -0.059339 0.003867 0.019335
v -0.069431 0.003867 0.013508
v -0.079524 0.003867 0.019335
v -0.079524 0.003867 0.030989
vn -1.0000 -0.0000 -0.0000
vn -0.0000 -0.0000 -1.0000
vn 1.0000 -0.0000 -0.0000
vn -0.0000 -0.0000 1.0000
vn -0.0000 -1.0000 -0.0000
vn -0.0000 1.0000 -0.0000
vn 0.6862 -0.6100 0.3962
vn -0.6863 -0.6100 0.3962
vn -0.0000 -0.6100 -0.7924
vn -0.0000 0.6100 -0.7924
vn -0.6862 0.6100 0.3962
vn 0.6862 0.6100 0.3962
vn -0.0000 -0.6100 0.7924
vn -0.6862 -0.6100 -0.3962
vn 0.6862 0.6100 -0.3962
vn 0.6862 -0.6100 -0.3962
vn -0.0000 0.6100 0.7924
vn -0.6862 0.6100 -0.3962
vn -0.6863 -0.6100 -0.3962
vn -0.6862 -0.6100 0.3962
vn 0.6863 -0.6100 0.3962
vn 0.6863 -0.6100 -0.3962
vt 0.128379 0.879170
vt 0.126557 0.883939
vt 0.126557 0.879170
vt 0.130200 0.885761
vt 0.132021 0.883939
vt 0.132021 0.885761
vt 0.130200 0.883939
vt 0.132021 0.879170
vt 0.130200 0.879170
vt 0.132021 0.877348
vt 0.124736 0.883939
vt 0.128379 0.883939
vt 0.014191 0.999192
vt 0.013636 0.998232
vt 0.014745 0.998232
vt 0.015189 0.870721
vt 0.015744 0.871681
vt 0.014635 0.871681
vt 0.104003 0.725356
vt 0.103363 0.732167
vt 0.103363 0.725356
vt 0.106563 0.725356
vt 0.105923 0.732167
vt 0.105923 0.725356
vt 0.105283 0.732167
vt 0.105283 0.725356
vt 0.104643 0.725356
vt 0.104003 0.732167
vt 0.107203 0.725356
vt 0.106563 0.732167
vt 0.104643 0.732167
vt 0.016864 0.734161
vt 0.017973 0.734161
vt 0.017419 0.735121
vt 0.018640 0.885865
vt 0.018086 0.886825
vt 0.017531 0.885865
vt 0.109506 0.748097
vt 0.108866 0.741285
vt 0.109506 0.741285
vt 0.106946 0.748097
vt 0.106306 0.741285
vt 0.106946 0.741285
vt 0.107586 0.748097
vt 0.107586 0.741285
vt 0.108866 0.748097
vt 0.108226 0.741285
vt 0.106306 0.748097
vt 0.105666 0.741285
vt 0.108226 0.748097
vt 0.077180 0.882689
vt 0.079001 0.887459
vt 0.077180 0.887459
vt 0.082644 0.882689
vt 0.080822 0.880868
vt 0.082644 0.880868
vt 0.082644 0.887459
vt 0.080822 0.882689
vt 0.082644 0.889280
vt 0.080822 0.887459
vt 0.075358 0.882689
vt 0.079001 0.882689
vt 0.019809 0.737165
vt 0.020917 0.737165
vt 0.020363 0.738125
vt 0.020689 0.734801
vt 0.019580 0.734801
vt 0.020135 0.733841
vt 0.100695 0.817531
vt 0.100055 0.810720
vt 0.100695 0.810720
vt 0.098135 0.817531
vt 0.097495 0.810720
vt 0.098135 0.810720
vt 0.098775 0.817531
vt 0.098775 0.810720
vt 0.100055 0.817531
vt 0.099415 0.810720
vt 0.097495 0.817531
vt 0.096855 0.810720
vt 0.099415 0.817531
vt 0.018460 0.871041
vt 0.017905 0.872001
vt 0.017351 0.871041
vt 0.014614 0.967054
vt 0.013506 0.967054
vt 0.014060 0.966094
vt 0.106859 0.586436
vt 0.106219 0.593247
vt 0.106219 0.586436
vt 0.109419 0.586436
vt 0.108779 0.593247
vt 0.108779 0.586436
vt 0.108139 0.593247
vt 0.108139 0.586436
vt 0.107499 0.586436
vt 0.106859 0.593247
vt 0.110059 0.586436
vt 0.109419 0.593247
vt 0.107499 0.593247
vt 0.130200 0.877348
vt 0.124736 0.879170
vt 0.014745 0.998872
vt 0.013636 0.998872
vt 0.014191 0.997912
vt 0.014635 0.871041
vt 0.015744 0.871041
vt 0.015189 0.872001
vt 0.107203 0.732167
vt 0.016864 0.734801
vt 0.017419 0.733841
vt 0.017973 0.734801
vt 0.018086 0.885545
vt 0.018640 0.886505
vt 0.017531 0.886505
vt 0.105666 0.748097
vt 0.080822 0.889280
vt 0.075358 0.887459
vt 0.019809 0.737805
vt 0.020363 0.736845
vt 0.020917 0.737805
vt 0.020689 0.734161
vt 0.020135 0.735121
vt 0.019580 0.734161
vt 0.096855 0.817531
vt 0.017905 0.870721
vt 0.018460 0.871681
vt 0.017351 0.871681
vt 0.014614 0.966414
vt 0.014060 0.967374
vt 0.013506 0.966414
vt 0.110059 0.593247
s 0
f 2/1/1 3/2/1 1/3/1
f 4/4/2 7/5/2 3/6/2
f 8/7/3 5/8/3 7/5/3
f 6/9/4 1/10/4 5/8/4
f 7/11/5 1/3/5 3/2/5
f 4/12/6 6/9/6 8/7/6
s 1
f 11/13/7 13/14/8 10/15/9
f 15/16/10 17/17/11 19/18/12
f 12/19/13 17/20/11 13/21/8
f 14/22/14 15/23/10 10/24/9
f 10/24/9 20/25/15 9/26/16
f 11/27/7 18/28/17 12/19/13
f 13/29/8 16/30/18 14/22/14
f 9/26/16 19/31/12 11/27/7
f 22/32/13 25/33/19 23/34/16
f 31/35/15 29/36/18 27/37/17
f 29/38/18 24/39/9 25/40/19
f 27/41/17 26/42/20 22/43/13
f 32/44/12 22/43/13 21/45/7
f 30/46/10 23/47/16 24/39/9
f 28/48/11 25/49/19 26/42/20
f 31/50/15 21/45/7 23/47/16
s 0
f 35/51/3 34/52/3 33/53/3
f 39/54/2 36/55/2 35/56/2
f 37/57/1 40/58/1 39/54/1
f 33/59/4 38/60/4 37/57/4
f 33/53/5 39/61/5 35/51/5
f 38/60/6 36/62/6 40/58/6
s 1
f 42/63/9 45/64/21 43/65/20
f 51/66/11 49/67/12 47/68/10
f 49/69/12 44/70/13 45/71/21
f 47/72/10 46/73/16 42/74/9
f 52/75/18 42/74/9 41/76/14
f 50/77/17 43/78/20 44/70/13
f 48/79/15 45/80/21 46/73/16
f 51/81/11 41/76/14 43/78/20
f 55/82/14 57/83/22 54/84/13
f 59/85/17 61/86/15 63/87/18
f 56/88/9 61/89/15 57/90/22
f 58/91/7 59/92/17 54/93/13
f 54/93/13 64/94/11 53/95/20
f 55/96/14 62/97/10 56/88/9
f 57/98/22 60/99/12 58/91/7
f 53/95/20 63/100/18 55/96/14
s 0
f 2/1/1 4/12/1 3/2/1
f 4/4/2 8/7/2 7/5/2
f 8/7/3 6/9/3 5/8/3
f 6/9/4 2/101/4 1/10/4
f 7/11/5 5/102/5 1/3/5
f 4/12/6 2/1/6 6/9/6
s 1
f 10/15/9 9/103/16 11/13/7
f 11/13/7 12/104/13 13/14/8
f 13/14/8 14/105/14 10/15/9
f 19/18/12 20/106/15 15/16/10
f 15/16/10 16/107/18 17/17/11
f 17/17/11 18/108/17 19/18/12
f 12/19/13 18/28/17 17/20/11
f 14/22/14 16/30/18 15/23/10
f 10/24/9 15/23/10 20/25/15
f 11/27/7 19/31/12 18/28/17
f 13/29/8 17/109/11 16/30/18
f 9/26/16 20/25/15 19/31/12
f 23/34/16 21/110/7 22/32/13
f 22/32/13 26/111/20 25/33/19
f 25/33/19 24/112/9 23/34/16
f 27/37/17 32/113/12 31/35/15
f 31/35/15 30/114/10 29/36/18
f 29/36/18 28/115/11 27/37/17
f 29/38/18 30/46/10 24/39/9
f 27/41/17 28/48/11 26/42/20
f 32/44/12 27/41/17 22/43/13
f 30/46/10 31/50/15 23/47/16
f 28/48/11 29/116/18 25/49/19
f 31/50/15 32/44/12 21/45/7
s 0
f 35/51/3 36/62/3 34/52/3
f 39/54/2 40/58/2 36/55/2
f 37/57/1 38/60/1 40/58/1
f 33/59/4 34/117/4 38/60/4
f 33/53/5 37/118/5 39/61/5
f 38/60/6 34/52/6 36/62/6
s 1
f 43/65/20 41/119/14 42/63/9
f 42/63/9 46/120/16 45/64/21
f 45/64/21 44/121/13 43/65/20
f 47/68/10 52/122/18 51/66/11
f 51/66/11 50/123/17 49/67/12
f 49/67/12 48/124/15 47/68/10
f 49/69/12 50/77/17 44/70/13
f 47/72/10 48/79/15 46/73/16
f 52/75/18 47/72/10 42/74/9
f 50/77/17 51/81/11 43/78/20
f 48/79/15 49/125/12 45/80/21
f 51/81/11 52/75/18 41/76/14
f 54/84/13 53/126/20 55/82/14
f 55/82/14 56/127/9 57/83/22
f 57/83/22 58/128/7 54/84/13
f 63/87/18 64/129/11 59/85/17
f 59/85/17 60/130/12 61/86/15
f 61/86/15 62/131/10 63/87/18
f 56/88/9 62/97/10 61/89/15
f 58/91/7 60/99/12 59/92/17
f 54/93/13 59/92/17 64/94/11
f 55/96/14 63/100/18 62/97/10
f 57/98/22 61/132/15 60/99/12
f 53/95/20 64/94/11 63/100/18
